PathFileType	4	(X/Y/Z)	/Users/itak/Documents/Research/Walk-IL/dataset/trc/00583_00009.trc
DataRate	CameraRate	NumFrames	NumMarkers	Units	OrigDataRate	OrigDataStartFrame	OrigNumFrames
100.000000	100.000000	4	53	mm	100.000000	74	594
Frame#	Time	RPSI			LPSI			L3			STRN			T10			C7			CLAV			RBAK			LBAK			LSHO			LUPA			LAEL			LAOL			LWTS			LWPS			LFRA			LIFD			LHPS			LHTS			RSHO			RUPA			RAEL			RAOL			RWTS			RWPS			RFRA			RIFD			RHTS			RHPS			RBHD			LFHD			RFHD			LBHD			LHIP			RHIP			RASI			LASI			LKNE			LTHI			LANK			LTIP			LTOE			LMT1			LMT5			LHEE			RKNE			RTHI			RANK			RTIP			RTOE			RMT1			RMT5			RHEE			
		X1	Y1	Z1	X2	Y2	Z2	X3	Y3	Z3	X4	Y4	Z4	X5	Y5	Z5	X6	Y6	Z6	X7	Y7	Z7	X8	Y8	Z8	X9	Y9	Z9	X10	Y10	Z10	X11	Y11	Z11	X12	Y12	Z12	X13	Y13	Z13	X14	Y14	Z14	X15	Y15	Z15	X16	Y16	Z16	X17	Y17	Z17	X18	Y18	Z18	X19	Y19	Z19	X20	Y20	Z20	X21	Y21	Z21	X22	Y22	Z22	X23	Y23	Z23	X24	Y24	Z24	X25	Y25	Z25	X26	Y26	Z26	X27	Y27	Z27	X28	Y28	Z28	X29	Y29	Z29	X30	Y30	Z30	X31	Y31	Z31	X32	Y32	Z32	X33	Y33	Z33	X34	Y34	Z34	X35	Y35	Z35	X36	Y36	Z36	X37	Y37	Z37	X38	Y38	Z38	X39	Y39	Z39	X40	Y40	Z40	X41	Y41	Z41	X42	Y42	Z42	X43	Y43	Z43	X44	Y44	Z44	X45	Y45	Z45	X46	Y46	Z46	X47	Y47	Z47	X48	Y48	Z48	X49	Y49	Z49	X50	Y50	Z50	X51	Y51	Z51	X52	Y52	Z52	X53	Y53	Z53	

75	0.74	-1123.295654296875	1016.813171386719	-136.5658874511719	-1036.090454101562	1021.778686523438	-237.2407073974609	-1074.170288085938	1112.015625	-186.7891540527344	-887.6717529296875	1301.33544921875	-43.22729110717773	-1084.575927734375	1236.973510742188	-194.7873229980469	-1056.482666015625	1510.371948242188	-154.10205078125	-902.9644165039062	1414.700805664062	-52.64271545410156	-1161.947631835938	1384.914306640625	-122.9240264892578	-1023.996704101562	1459.686645507812	-248.5812530517578	-895.1409912109375	1488.169921875	-251.4118041992188	-848.5057983398438	1365.127563476562	-321.2373046875	-811.0386962890625	1144.477783203125	-333.5724792480469	-910.7424926757812	1136.351806640625	-351.8550720214844	-776.7199096679688	894.098388671875	-253.0501861572266	-759.4118041992188	878.4947509765625	-337.7814025878906	-788.6182861328125	1057.705078125	-328.8614807128906	-789.3567504882812	727.9379272460938	-262.3721008300781	-760.06298828125	818.0343017578125	-331.7738342285156	-753.034912109375	816.66064453125	-263.8270263671875	-1099.83056640625	1477.477905273438	8.340293884277344	-1153.387451171875	1413.273193359375	54.25913238525391	-1179.513916015625	1125.009887695312	102.5884628295898	-1211.436645507812	1107.181274414062	50.83094787597656	-1047.828857421875	903.7445678710938	147.5360260009766	-1122.405883789062	885.1889038085938	179.1283874511719	-1175.835205078125	1070.055786132812	116.3170776367188	-1045.139282226562	730.8855590820312	158.2813415527344	-1034.042846679688	812.7993774414062	177.8582611083984	-1108.635864257812	811.203125	188.9777526855469	-1054.359252929688	1680.479614257812	-62.17157363891602	-852.0563354492188	1726.677368164062	-89.03627014160156	-947.31201171875	1718.826782226562	21.69359397888184	-939.5361328125	1688.472412109375	-182.7189178466797	-858.5813598632812	940.1256103515625	-260.4480895996094	-1107.98876953125	938.2957763671875	33.32053375244141	-1002.691162109375	969.2335815429688	43.93207931518555	-829.4938354492188	961.937255859375	-170.272216796875	-899.4004516601562	492.5565795898438	-222.2091522216797	-866.2373046875	658.06005859375	-242.3562622070312	-975.5286254882812	35.18531036376953	-277.1045227050781	-951.9470825195312	252.8497314453125	-272.224365234375	-842.0066528320312	36.40193557739258	-102.8946533203125	-922.6715087890625	38.66439437866211	-119.909309387207	-869.91455078125	35.75292587280273	-214.4405975341797	-1063.093139648438	32.95485687255859	-275.7373657226562	-1071.849243164062	494.6821899414062	-13.37949562072754	-1078.979125976562	781.7886962890625	47.4629020690918	-1130.565673828125	36.69397354125977	-99.76956939697266	-1067.505493164062	353.0295104980469	-31.5659008026123	-935.004638671875	37.73287200927734	13.41692638397217	-956.2935180664062	39.46147918701172	-60.41041564941406	-1042.778198242188	37.67099380493164	1.087748527526855	-1134.273803710938	29.40920639038086	-176.4790649414062	
76	0.75	-1123.368408203125	1016.808715820312	-136.4806671142578	-1036.231689453125	1021.761596679688	-237.2086639404297	-1074.14013671875	1112.016845703125	-186.6720733642578	-887.7470092773438	1301.27197265625	-43.14950942993164	-1084.6318359375	1237.004516601562	-194.7397918701172	-1056.502563476562	1510.380249023438	-153.9825897216797	-903.0944213867188	1414.6259765625	-52.44614028930664	-1161.981201171875	1384.942626953125	-122.8739318847656	-1024.031494140625	1459.705322265625	-248.4904937744141	-895.1333618164062	1488.153198242188	-251.2715606689453	-848.4178466796875	1365.064575195312	-320.9888000488281	-810.7616577148438	1144.425415039062	-333.0479431152344	-910.4747924804688	1136.207397460938	-351.4691772460938	-776.2576293945312	894.2816772460938	-252.0398559570312	-758.8098754882812	878.4925537109375	-336.562255859375	-788.21484375	1057.72607421875	-328.1828918457031	-788.9244384765625	728.1946411132812	-260.8233337402344	-759.3428344726562	818.0545043945312	-330.3940124511719	-752.520751953125	816.8696899414062	-262.35888671875	-1099.914916992188	1477.456909179688	8.46326732635498	-1153.488037109375	1413.255004882812	54.32865142822266	-1179.730224609375	1124.9814453125	102.5296859741211	-1211.554931640625	1107.180419921875	50.85028839111328	-1048.202758789062	903.6869506835938	147.516357421875	-1122.819702148438	885.1420288085938	179.131591796875	-1176.101318359375	1070.038452148438	116.2683029174805	-1045.537963867188	730.7919311523438	158.1923522949219	-1034.387939453125	812.71728515625	177.75537109375	-1109.038452148438	811.1548461914062	188.8940734863281	-1054.244140625	1680.538330078125	-61.86186218261719	-851.7311401367188	1726.482299804688	-88.6434326171875	-947.1798706054688	1718.664672851562	22.08987236022949	-939.3148803710938	1688.495971679688	-182.3976745605469	-858.7348022460938	940.1956176757812	-260.7810668945312	-1108.018798828125	938.2805786132812	33.37880706787109	-1002.736267089844	969.221435546875	43.97704696655273	-829.5420532226562	961.9393310546875	-170.2779998779297	-899.4425048828125	492.5385437011719	-222.1905670166016	-866.1624755859375	657.9345703125	-242.2580871582031	-975.52490234375	35.18288803100586	-277.1068725585938	-951.9640502929688	252.8587646484375	-272.2254028320312	-842.010498046875	36.40565872192383	-102.8970336914062	-922.66943359375	38.66456985473633	-119.9118194580078	-869.9149780273438	35.75317764282227	-214.442138671875	-1063.090454101562	32.94217300415039	-275.7515258789062	-1071.847900390625	494.6664428710938	-13.31653308868408	-1078.9833984375	781.7703857421875	47.5026741027832	-1130.572998046875	36.69899749755859	-99.77891540527344	-1067.473266601562	352.9951171875	-31.54413223266602	-935.0065307617188	37.73112487792969	13.4116039276123	-956.3006591796875	39.46101379394531	-60.41858673095703	-1042.78369140625	37.67120742797852	1.094396233558655	-1134.280639648438	29.40505409240723	-176.4829711914062	
77	0.76	-1123.451293945312	1016.804260253906	-136.3940582275391	-1036.42138671875	1021.797424316406	-237.2174530029297	-1074.137573242188	1112.014038085938	-186.5710906982422	-887.8140258789062	1301.2021484375	-43.06899642944336	-1084.683715820312	1237.038330078125	-194.6934051513672	-1056.509643554688	1510.38671875	-153.8577270507812	-903.237548828125	1414.541748046875	-52.22119903564453	-1162.007934570312	1384.97119140625	-122.8230514526367	-1024.050415039062	1459.729858398438	-248.3991851806641	-895.1073608398438	1488.13623046875	-251.1149444580078	-848.3134155273438	1365.014038085938	-320.7530517578125	-810.4651489257812	1144.373779296875	-332.5077514648438	-910.169677734375	1136.04296875	-351.0640258789062	-775.7903442382812	894.5014038085938	-250.923828125	-758.1627197265625	878.49462890625	-335.2040710449219	-787.80859375	1057.746337890625	-327.4383239746094	-788.388916015625	728.5319213867188	-259.1356811523438	-758.5289306640625	818.0833740234375	-328.8367309570312	-751.90283203125	817.1591186523438	-260.7521362304688	-1099.994262695312	1477.43212890625	8.590213775634766	-1153.579345703125	1413.231567382812	54.39682769775391	-1179.936645507812	1124.94482421875	102.4833068847656	-1211.67333984375	1107.161865234375	50.87366104125977	-1048.541625976562	903.6386108398438	147.4983062744141	-1123.177978515625	885.1026611328125	179.1346435546875	-1176.3408203125	1070.015380859375	116.2236709594727	-1045.887451171875	730.708984375	158.1140289306641	-1034.676147460938	812.653564453125	177.6567230224609	-1109.38623046875	811.1089477539062	188.8222961425781	-1054.077880859375	1680.580078125	-61.53709411621094	-851.412109375	1726.2685546875	-88.22615051269531	-947.0089111328125	1718.4912109375	22.49308776855469	-939.0571899414062	1688.5009765625	-182.0613250732422	-858.8562622070312	940.2962036132812	-261.1771545410156	-1108.0576171875	938.2650146484375	33.4351806640625	-1002.787231445312	969.2078247070312	44.02510833740234	-829.5980224609375	961.9332885742188	-170.2713928222656	-899.4832153320312	492.5223693847656	-222.17529296875	-866.0897216796875	657.8328857421875	-242.1673889160156	-975.5186157226562	35.18022918701172	-277.1097106933594	-951.97705078125	252.8721618652344	-272.2248229980469	-842.0138549804688	36.40915679931641	-102.8999557495117	-922.6682739257812	38.66457748413086	-119.9140014648438	-869.9150390625	35.75337600708008	-214.4439849853516	-1063.09033203125	32.93173980712891	-275.7563171386719	-1071.858032226562	494.6509704589844	-13.25708675384521	-1078.993896484375	781.7468872070312	47.54280090332031	-1130.57666015625	36.69816970825195	-99.78588104248047	-1067.451538085938	352.9641418457031	-31.52426147460938	-935.0088500976562	37.72877502441406	13.40535831451416	-956.3072509765625	39.46039962768555	-60.42768859863281	-1042.784423828125	37.67454147338867	1.096302270889282	-1134.28759765625	29.39912605285645	-176.4893646240234	
78	0.77	-1123.546020507812	1016.797973632812	-136.3050384521484	-1036.631591796875	1021.866760253906	-237.2524719238281	-1074.166381835938	1112.008666992188	-186.4905548095703	-887.871337890625	1301.125732421875	-42.98494338989258	-1084.73046875	1237.073486328125	-194.6510314941406	-1056.499389648438	1510.391357421875	-153.7262725830078	-903.3890380859375	1414.448974609375	-51.97123336791992	-1162.026733398438	1384.999633789062	-122.772087097168	-1024.052368164062	1459.758911132812	-248.3045654296875	-895.0647583007812	1488.11865234375	-250.9392700195312	-848.1942749023438	1364.974365234375	-320.5263366699219	-810.1483154296875	1144.326171875	-331.9511108398438	-909.8256225585938	1135.857666015625	-350.6441650390625	-775.3109741210938	894.767822265625	-249.6880798339844	-757.4723510742188	878.5040283203125	-333.7150573730469	-787.4031982421875	1057.762939453125	-326.6204528808594	-787.7650756835938	728.9424438476562	-257.3074340820312	-757.63232421875	818.120361328125	-327.108642578125	-751.19580078125	817.522216796875	-259.00537109375	-1100.067260742188	1477.404174804688	8.722466468811035	-1153.66162109375	1413.203369140625	54.46559906005859	-1180.132446289062	1124.901611328125	102.4480209350586	-1211.795288085938	1107.126708984375	50.89287948608398	-1048.840942382812	903.596435546875	147.4799194335938	-1123.478637695312	885.0677490234375	179.1324005126953	-1176.554077148438	1069.986083984375	116.1835327148438	-1046.183837890625	730.6355590820312	158.0379791259766	-1034.91455078125	812.6055297851562	177.5667724609375	-1109.682250976562	811.064208984375	188.7639007568359	-1053.857666015625	1680.60498046875	-61.19882965087891	-851.114990234375	1726.03662109375	-87.78099060058594	-946.7943725585938	1718.3046875	22.90530967712402	-938.7609252929688	1688.487670898438	-181.70654296875	-858.9303588867188	940.4270629882812	-261.5778503417969	-1108.107177734375	938.2487182617188	33.49219512939453	-1002.846984863281	969.1929931640625	44.07940292358398	-829.6621704101562	961.9179077148438	-170.2496795654297	-899.523681640625	492.5088806152344	-222.1615295410156	-866.02490234375	657.7510986328125	-242.0857238769531	-975.5092163085938	35.17790985107422	-277.1140747070312	-951.9848022460938	252.890380859375	-272.221923828125	-842.0175170898438	36.4127311706543	-102.9027481079102	-922.6685791015625	38.66444778442383	-119.9157791137695	-869.9149169921875	35.75365829467773	-214.4458618164062	-1063.093139648438	32.92406463623047	-275.7503662109375	-1071.879516601562	494.6351623535156	-13.20135879516602	-1079.016479492188	781.7205200195312	47.58616638183594	-1130.576904296875	36.69108581542969	-99.79081726074219	-1067.439208984375	352.9361877441406	-31.50633430480957	-935.0113525390625	37.72606658935547	13.39887428283691	-956.3121948242188	39.4595947265625	-60.43722152709961	-1042.783569335938	37.67779541015625	1.094646692276001	-1134.295288085938	29.39044380187988	-176.4977111816406	
